<svg xmlns="http://www.w3.org/2000/svg" width="21" height="21" viewBox="0 0 21 21" fill="none">
  <rect x="0.754883" y="10.8229" width="14.3157" height="14.3157" transform="rotate(-45 0.754883 10.8229)" fill="#E0B37F"/>
  <path d="M11.1024 6.81458H11.0876C10.6805 6.81458 10.3506 7.14453 10.3506 7.55155V13.5218C10.3506 13.9288 10.6805 14.2588 11.0876 14.2588H11.1024C11.5095 14.2588 11.8394 13.9288 11.8394 13.5218V7.55155C11.8394 7.14453 11.5095 6.81458 11.1024 6.81458Z"
    fill="#203F25"/>
  <path d="M14.0783 9.79242H8.10807C7.70105 9.79242 7.37109 10.1224 7.37109 10.5294V10.5443C7.37109 10.9513 7.70105 11.2813 8.10807 11.2813H14.0783C14.4853 11.2813 14.8153 10.9513 14.8153 10.5443V10.5294C14.8153 10.1224 14.4853 9.79242 14.0783 9.79242Z"
    fill="#203F25"/>
</svg>

