<svg xmlns="http://www.w3.org/2000/svg" width="30" height="30" viewBox="0 0 30 30" fill="none">
<path d="M14.9998 22.3828C14.8728 22.3829 14.747 22.3572 14.6301 22.3073C14.5133 22.2573 14.4078 22.1841 14.3201 22.0921L9.16389 16.7015C8.99233 16.5213 8.89941 16.2802 8.90556 16.0314C8.91171 15.7827 9.01644 15.5465 9.19671 15.375C9.37697 15.2034 9.61801 15.1105 9.86678 15.1166C10.1156 15.1228 10.3517 15.2275 10.5233 15.4078L15.6795 20.7984C15.7646 20.8876 15.8312 20.9927 15.8756 21.1077C15.92 21.2227 15.9412 21.3453 15.9382 21.4685C15.9351 21.5917 15.9078 21.7131 15.8578 21.8257C15.8078 21.9384 15.7361 22.0401 15.6467 22.125C15.4722 22.2908 15.2406 22.3831 14.9998 22.3828Z" fill="#203F25"/>
<path d="M14.9998 22.3828C14.7591 22.3831 14.5275 22.2908 14.353 22.125C14.2636 22.0401 14.1919 21.9384 14.1419 21.8257C14.0918 21.7131 14.0645 21.5917 14.0615 21.4685C14.0584 21.3453 14.0797 21.2227 14.1241 21.1077C14.1685 20.9927 14.2351 20.8876 14.3201 20.7984L19.4764 15.4078C19.648 15.2275 19.8841 15.1228 20.1329 15.1166C20.3817 15.1105 20.6227 15.2034 20.803 15.375C20.9832 15.5465 21.0879 15.7827 21.0941 16.0314C21.1003 16.2802 21.0073 16.5213 20.8358 16.7015L15.6795 22.0921C15.5918 22.1841 15.4864 22.2573 15.3695 22.3073C15.2527 22.3572 15.1269 22.3829 14.9998 22.3828ZM14.9998 14.8828C14.8728 14.8829 14.747 14.8572 14.6301 14.8073C14.5133 14.7573 14.4078 14.6841 14.3201 14.5921L9.16389 9.20152C8.99233 9.02125 8.89941 8.78022 8.90556 8.53144C8.91171 8.28266 9.01644 8.04652 9.19671 7.87495C9.37697 7.70339 9.61801 7.61047 9.86678 7.61662C10.1156 7.62277 10.3517 7.7275 10.5233 7.90777L15.6795 13.2984C15.7646 13.3876 15.8312 13.4927 15.8756 13.6077C15.92 13.7227 15.9412 13.8453 15.9382 13.9685C15.9351 14.0917 15.9078 14.2131 15.8578 14.3257C15.8078 14.4384 15.7361 14.5401 15.6467 14.625C15.4722 14.7908 15.2406 14.8831 14.9998 14.8828Z" fill="#203F25"/>
<path d="M15.0002 14.8828C14.7594 14.8831 14.5278 14.7908 14.3533 14.625C14.2639 14.5401 14.1922 14.4384 14.1422 14.3257C14.0922 14.2131 14.0649 14.0917 14.0618 13.9685C14.0588 13.8453 14.08 13.7227 14.1244 13.6077C14.1688 13.4927 14.2354 13.3876 14.3205 13.2984L19.4767 7.90777C19.6483 7.7275 19.8844 7.62277 20.1332 7.61662C20.382 7.61047 20.623 7.70339 20.8033 7.87495C20.9836 8.04652 21.0883 8.28266 21.0944 8.53144C21.1006 8.78022 21.0077 9.02125 20.8361 9.20152L15.6799 14.5921C15.5922 14.6841 15.4867 14.7573 15.3699 14.8073C15.253 14.8572 15.1272 14.8829 15.0002 14.8828Z" fill="#203F25"/>
</svg>