<svg xmlns="http://www.w3.org/2000/svg" viewBox="0 0 100 100" id="restaurant-cloche">
  <path fill="#091531" d="M90,76H10a2,2,0,0,1-2-2,42,42,0,0,1,84,0A2,2,0,0,1,90,76ZM12.05,72H88a38,38,0,0,0-75.9,0Z"></path>
  <path fill="#091531" d="M22.28 60a2 2 0 01-1-.27A2 2 0 0120.55 57a34.23 34.23 0 0121-15.93 2 2 0 111 3.87A30.23 30.23 0 0024 59 2 2 0 0122.28 60zM98 84H2a2 2 0 010-4H98a2 2 0 010 4zM50 28a6 6 0 116-6A6 6 0 0150 28zm0-8a2 2 0 102 2A2 2 0 0050 20z"></path>
  <path fill="#091531" d="M50,36a2,2,0,0,1-2-2V26a2,2,0,0,1,4,0v8A2,2,0,0,1,50,36Z"></path>
</svg>
